# This file uses centimeters as units for non-parametric coordinates.

mtllib drawer 2 BO.mtl
g default
v 31.136703 29.500408 -17.002777
v 31.136703 29.500408 0.000000
v 31.136703 20.781963 -17.002777
v 31.136703 20.781963 0.000000
v 31.136703 0.000000 0.000000
v 31.136703 0.000000 -17.002777
v 31.136703 22.683105 0.000000
v 31.136703 22.683105 -17.002777
v 31.136703 1.668945 0.000000
v 31.136703 1.668945 -17.002777
v 31.136703 31.559414 -17.002777
v 31.136703 31.559414 0.000000
v 29.973938 29.500408 0.000000
v 29.973938 20.781963 0.000000
v 29.973938 0.000000 -17.002777
v 29.973938 22.683105 -17.002777
v 29.973938 1.668945 -17.002777
v 29.973938 29.500408 -17.002777
v 29.973938 20.781963 -17.002777
v 29.973938 0.000000 0.000000
v 29.973938 22.683105 0.000000
v 29.973938 1.668945 0.000000
v 29.973938 31.559414 -17.002777
v 29.973938 31.559414 0.000000
v 0.000000 29.500408 0.000015
v 0.000000 20.781963 0.000015
v 0.000000 0.000000 -17.002777
v 0.000000 22.683105 -17.002777
v 0.000000 1.668945 -17.002777
v 0.000000 29.500408 -17.002777
v 0.000000 20.781963 -17.002777
v 0.000000 0.000000 0.000000
v 0.000000 22.683105 0.000000
v 0.000000 1.668945 0.000000
v 0.000000 31.559414 -17.002777
v 0.000000 31.559414 0.000000
v 1.291824 29.500408 -17.002777
v 1.291824 20.781963 -17.002777
v 1.291824 0.000000 0.000000
v 1.291824 22.683105 0.000000
v 1.291824 1.668945 0.000000
v 1.291824 31.559414 -17.002777
v 1.291824 31.559414 0.000000
v 1.291824 29.500408 0.000015
v 1.291824 20.781963 0.000015
v 1.291824 0.000000 -17.002777
v 1.291824 22.683105 -17.002777
v 1.291824 1.668945 -17.002777
v 31.136703 31.559414 -15.470001
v 31.136703 22.683105 -15.470001
v 31.136703 1.668945 -15.470001
v 31.136703 29.500408 -15.470001
v 31.136703 20.781963 -15.470001
v 31.136703 0.000000 -15.470001
v 29.973938 22.683105 -15.470001
v 29.973938 1.668945 -15.470001
v 29.973938 20.781963 -15.470001
v 29.973938 31.559414 -15.470001
v 29.973938 29.500408 -15.470001
v 29.973938 0.000000 -15.470001
v 0.000000 22.683105 -15.470001
v 0.000000 1.668945 -15.470001
v 0.000015 20.781963 -15.470001
v 0.000000 31.559414 -15.470001
v 0.000000 0.000000 -15.470001
v 0.000000 29.500408 -15.470001
v 1.291824 31.559414 -15.470001
v 1.291824 0.000000 -15.470001
v 1.291824 22.683105 -15.470001
v 1.291824 1.668945 -15.470001
v 1.291824 29.500408 -15.470001
v 1.291824 20.781963 -15.470001
v 29.965073 22.713310 -16.733833
v 1.288269 22.713310 -16.733833
v 29.965073 29.408295 -16.733833
v 1.288269 29.408295 -16.733833
v 29.965073 29.408295 -0.145844
v 1.288269 29.408295 -0.145844
v 29.965073 22.713310 -0.145844
v 1.288269 22.713310 -0.145844
v 29.349945 29.408295 -16.118614
v 1.903427 29.408295 -16.118614
v 1.903427 29.408295 -0.760880
v 29.349945 29.408295 -0.760880
v 29.349945 23.805756 -16.118614
v 1.903427 23.805756 -16.118614
v 1.903427 23.805756 -0.760880
v 29.349945 23.805756 -0.760880
v 19.214890 26.368614 -0.145844
v 12.038422 26.368614 -0.145844
v 12.038422 25.752981 -0.145844
v 19.214890 25.752981 -0.145844
v 19.214890 26.368614 0.911255
v 12.038422 26.368614 0.911255
v 12.038422 25.752981 0.911255
v 19.214890 25.752981 0.911255
v 19.061066 26.368614 -0.092758
v 12.192215 26.368614 -0.092758
v 12.192215 26.368614 0.656708
v 19.061066 26.368614 0.656708
v 19.061066 25.752981 -0.092758
v 12.192215 25.752981 -0.092758
v 19.061066 25.752981 0.656708
v 12.192215 25.752981 0.656708
vt 0.159786 0.578980
vt 0.824443 0.799497
vt 0.340116 0.017487
vt 0.159784 0.589436
vt 0.825916 0.190861
vt 0.807491 0.814549
vt 0.146002 0.589433
vt 0.006898 0.589410
vt 0.636373 0.799507
vt 0.807403 0.221207
vt 0.418511 0.017487
vt 0.401416 0.017487
vt 0.824436 0.749665
vt 0.824435 0.735768
vt 0.757345 0.142697
vt 0.189069 0.016096
vt 0.182457 0.007021
vt 0.636367 0.749675
vt 0.317113 0.877221
vt 0.590372 0.017488
vt 0.590372 0.007033
vt 0.824416 0.583859
vt 0.023853 0.173645
vt 0.164226 0.877212
vt 0.164226 0.887668
vt 0.636347 0.596069
vt 0.340114 0.275392
vt 0.159741 0.847341
vt 0.145958 0.847338
vt 0.006854 0.847315
vt 0.807403 0.491616
vt 0.418509 0.287008
vt 0.401414 0.287008
vt 0.401414 0.275392
vt 0.418509 0.275392
vt 0.401414 0.439894
vt 0.418508 0.439895
vt 0.218058 0.597088
vt 0.747803 0.574509
vt 0.317128 0.607700
vt 0.590370 0.287009
vt 0.590370 0.275393
vt 0.317127 0.619316
vt 0.023853 0.489808
vt 0.605377 0.439896
vt 0.164241 0.619307
vt 0.023853 0.448109
vt 0.340114 0.287008
vt 0.321600 0.287008
vt 0.321600 0.300790
vt 0.006852 0.858931
vt 0.340113 0.439894
vt 0.617998 0.221207
vt 0.617998 0.491616
vt 0.142648 0.173645
vt 0.142648 0.448109
vt 0.807489 0.799498
vt 0.807482 0.749666
vt 0.675041 0.221207
vt 0.807481 0.735769
vt 0.807463 0.596059
vt 0.340114 0.300790
vt 0.401414 0.300790
vt 0.303330 0.887675
vt 0.418509 0.300791
vt 0.303345 0.607699
vt 0.590370 0.300792
vt 0.675041 0.491616
vt 0.303345 0.619315
vt 0.303330 0.877220
vt 0.302701 0.448109
vt 0.302701 0.173645
vt 0.321615 0.579029
vt 0.321599 0.439925
vt 0.579504 0.439895
vt 0.579520 0.578999
vt 0.321633 0.735228
vt 0.321617 0.596124
vt 0.579538 0.735198
vt 0.579522 0.596094
vt 0.590370 0.439895
vt 0.021456 0.865257
vt 0.636365 0.735778
vt 0.023853 0.138291
vt 0.807403 0.530354
vt 0.756038 0.583876
vt 0.159319 0.972730
vt 0.807403 0.190861
vt 0.008660 0.448109
vt 0.008660 0.173645
vt 0.825916 0.530354
vt 0.825916 0.491616
vt 0.008660 0.489808
vt 0.825916 0.221207
vt 0.008660 0.138291
vt 0.006899 0.578954
vt 0.605377 0.300792
vt 0.164242 0.607691
vt 0.636346 0.583869
vt 0.807462 0.583860
vt 0.145956 0.858954
vt 0.321599 0.439894
vt 0.605377 0.287009
vt 0.321601 0.007031
vt 0.824445 0.814548
vt 0.146003 0.578978
vt 0.605379 0.007033
vt 0.317112 0.887676
vt 0.824418 0.596058
vt 0.418511 0.007032
vt 0.340116 0.007031
vt 0.401416 0.007031
vt 0.605379 0.017488
vt 0.605377 0.275393
vt 0.159739 0.858957
vt 0.321600 0.275392
vt 0.321601 0.017486
vt 0.636375 0.814558
vt 0.087236 0.982179
vt 0.021467 0.982187
vt 0.211201 0.607702
vt 0.087226 0.865249
vt 0.764802 0.134841
vt 0.097525 0.972726
vt 0.097529 0.871691
vt 0.159323 0.871694
vt 0.635352 0.735208
vt 0.635313 0.993065
vt 0.575113 0.993056
vt 0.575152 0.735198
vt 0.974734 0.453312
vt 0.974756 0.700107
vt 0.836662 0.700119
vt 0.836639 0.453325
vt 0.426728 0.773628
vt 0.426727 0.955412
vt 0.398803 0.955412
vt 0.398803 0.773628
vt 0.976258 0.195440
vt 0.976307 0.453298
vt 0.827150 0.453326
vt 0.827102 0.195468
vt 0.798502 0.173778
vt 0.798488 0.007038
vt 0.852340 0.007031
vt 0.852354 0.173772
vt 0.673463 0.007031
vt 0.673485 0.156188
vt 0.613284 0.156196
vt 0.613263 0.007040
vt 0.569581 0.987524
vt 0.569619 0.740729
vt 0.857289 0.013213
vt 0.857301 0.167587
vt 0.915915 0.977284
vt 0.915920 0.719427
vt 0.921450 0.724958
vt 0.921446 0.971753
vt 0.607752 0.150665
vt 0.607733 0.012571
vt 0.567538 0.735213
vt 0.567501 0.982008
vt 0.517124 0.982000
vt 0.517161 0.735205
vt 0.860498 0.145131
vt 0.860484 0.007036
vt 0.910861 0.007031
vt 0.910875 0.145125
vt 0.930767 0.976413
vt 0.930771 0.729618
vt 0.981148 0.729619
vt 0.981144 0.976414
vt 0.724874 0.007031
vt 0.724894 0.145125
vt 0.674517 0.145133
vt 0.674497 0.007038
vt 0.888585 0.880620
vt 0.888586 0.816090
vt 0.855715 0.977283
vt 0.883049 0.880620
vt 0.855720 0.719425
vt 0.883050 0.816090
vt 0.426727 0.982189
vt 0.398803 0.982189
vt 0.398803 0.746852
vt 0.426728 0.746852
vt 0.392017 0.741232
vt 0.391999 0.988925
vt 0.390168 0.983617
vt 0.390184 0.746541
vt 0.727860 0.830326
vt 0.727848 0.987433
vt 0.710395 0.949600
vt 0.710403 0.838214
vt 0.329877 0.966528
vt 0.329811 0.761470
vt 0.337086 0.765863
vt 0.337148 0.962131
vt 0.830791 0.987251
vt 0.830790 0.830143
vt 0.848249 0.838032
vt 0.848251 0.949419
vt 0.367087 0.988924
vt 0.367104 0.741230
vt 0.368936 0.746539
vt 0.368919 0.983616
vt 0.788053 0.830328
vt 0.788052 0.987437
vt 0.770592 0.949605
vt 0.770594 0.838217
vt 0.457872 0.740656
vt 0.457861 0.985059
vt 0.435004 0.979821
vt 0.435014 0.745894
vt 0.669155 0.829223
vt 0.669174 0.973852
vt 0.650211 0.966592
vt 0.650197 0.864053
vt 0.337155 0.983546
vt 0.354739 0.962125
vt 0.354746 0.983540
vt 0.354676 0.765857
vt 0.337079 0.744448
vt 0.354670 0.744443
vn 0.000000 0.000000 -1.000000
vn 0.000000 0.000000 -1.000000
vn 0.000000 0.000000 -1.000000
vn 0.000000 0.000000 -1.000000
vn 0.000000 1.000000 0.000000
vn 0.000000 1.000000 0.000000
vn 0.000000 1.000000 0.000000
vn 0.000000 1.000000 0.000000
vn 0.000000 0.000000 1.000000
vn 0.000000 0.000000 1.000000
vn 0.000000 0.000004 1.000000
vn 0.000000 0.000004 1.000000
vn 0.000000 0.000000 -1.000000
vn 0.000000 0.000000 -1.000000
vn 0.000000 0.000000 -1.000000
vn 0.000000 0.000000 -1.000000
vn 0.000001 0.000004 1.000000
vn 0.000001 0.000004 1.000000
vn 0.000000 0.000000 1.000000
vn 0.000000 0.000000 1.000000
vn 0.000000 0.000000 -1.000000
vn 0.000000 0.000000 -1.000000
vn 0.000000 0.000000 -1.000000
vn 0.000000 0.000000 -1.000000
vn 0.000000 0.000000 1.000000
vn 0.000000 0.000000 1.000000
vn 0.000000 0.000000 1.000000
vn 0.000000 0.000000 1.000000
vn 0.000000 0.000000 -1.000000
vn 0.000000 0.000000 -1.000000
vn 0.000000 0.000000 -1.000000
vn 0.000000 0.000000 -1.000000
vn 0.000000 1.000000 0.000000
vn 0.000000 1.000000 0.000000
vn 0.000000 1.000000 0.000000
vn 0.000000 1.000000 0.000000
vn 0.000000 0.000004 1.000000
vn 0.000000 0.000004 1.000000
vn 0.000000 0.000004 1.000000
vn 0.000000 0.000004 1.000000
vn 0.000000 0.000000 -1.000000
vn 0.000000 0.000000 -1.000000
vn 0.000000 0.000000 -1.000000
vn 0.000000 0.000000 -1.000000
vn 0.000000 0.000008 1.000000
vn 0.000000 0.000008 1.000000
vn 0.000001 0.000004 1.000000
vn 0.000001 0.000004 1.000000
vn 0.000000 0.000000 -1.000000
vn 0.000000 0.000000 -1.000000
vn 0.000000 0.000000 -1.000000
vn 0.000000 0.000000 -1.000000
vn 0.000000 0.000000 1.000000
vn 0.000000 0.000000 1.000000
vn 0.000000 0.000000 1.000000
vn 0.000000 0.000000 1.000000
vn 0.000000 0.000000 -1.000000
vn 0.000000 0.000000 -1.000000
vn 0.000000 0.000000 -1.000000
vn 0.000000 0.000000 -1.000000
vn 0.000000 1.000000 0.000000
vn 0.000000 1.000000 0.000000
vn 0.000000 1.000000 0.000000
vn 0.000000 1.000000 0.000000
vn 0.000000 0.000004 1.000000
vn 0.000000 0.000004 1.000000
vn 0.000000 0.000007 1.000000
vn 0.000000 0.000007 1.000000
vn 0.000000 0.000000 -1.000000
vn 0.000000 0.000000 -1.000000
vn 0.000000 0.000000 -1.000000
vn 0.000000 0.000000 -1.000000
vn 0.000001 0.000004 1.000000
vn 0.000001 0.000004 1.000000
vn 0.000001 0.000004 1.000000
vn 0.000001 0.000004 1.000000
vn 0.000000 0.000000 -1.000000
vn 0.000000 0.000000 -1.000000
vn 0.000000 0.000000 -1.000000
vn 0.000000 0.000000 -1.000000
vn 0.000000 0.000000 1.000000
vn 0.000000 0.000000 1.000000
vn 0.000000 0.000000 1.000000
vn 0.000000 0.000000 1.000000
vn 0.000000 1.000000 0.000000
vn 0.000000 1.000000 0.000000
vn 0.000000 1.000000 0.000000
vn 0.000000 1.000000 0.000000
vn 0.000000 1.000000 0.000000
vn 0.000000 1.000000 0.000000
vn 0.000000 1.000000 0.000000
vn 0.000000 1.000000 0.000000
vn 0.000000 0.000000 -1.000000
vn 0.000000 0.000000 -1.000000
vn 0.000000 0.000000 -1.000000
vn 0.000000 0.000000 -1.000000
vn 1.000000 0.000000 0.000000
vn 1.000000 0.000000 0.000000
vn 1.000000 0.000000 0.000000
vn 1.000000 0.000000 0.000000
vn 0.000000 0.000000 1.000000
vn 0.000000 0.000000 1.000000
vn 0.000000 0.000000 1.000000
vn 0.000000 0.000000 1.000000
vn -1.000000 0.000000 0.000000
vn -1.000000 0.000000 0.000000
vn -1.000000 0.000000 0.000000
vn -1.000000 0.000000 0.000000
vn 1.000000 0.000000 0.000000
vn 1.000000 0.000000 0.000000
vn 1.000000 0.000000 0.000000
vn 1.000000 0.000000 0.000000
vn 0.000000 -0.000002 1.000000
vn 0.000000 -0.000002 1.000000
vn 0.000000 -0.000002 1.000000
vn 0.000000 -0.000002 1.000000
vn -1.000000 -0.000001 0.000000
vn -1.000000 -0.000001 0.000000
vn -1.000000 -0.000001 0.000000
vn -1.000000 -0.000001 0.000000
vn 0.000000 0.000000 -1.000000
vn 0.000000 0.000000 -1.000000
vn 0.000000 0.000000 -1.000000
vn 0.000000 0.000000 -1.000000
vn 1.000000 0.000000 0.000000
vn 1.000000 0.000000 0.000000
vn 1.000000 0.000000 0.000000
vn 1.000000 0.000000 0.000000
vn 1.000000 0.000000 0.000000
vn 1.000000 0.000000 0.000000
vn 1.000000 0.000000 0.000000
vn 1.000000 0.000000 0.000000
vn 1.000000 0.000000 0.000000
vn 1.000000 0.000000 0.000000
vn 1.000000 0.000000 0.000000
vn 1.000000 0.000000 0.000000
vn -1.000000 0.000000 0.000000
vn -1.000000 0.000000 0.000000
vn -1.000000 0.000003 0.000000
vn -1.000000 0.000003 0.000000
vn -1.000000 0.000000 0.000005
vn -1.000000 0.000000 0.000005
vn -1.000000 0.000004 0.000000
vn -1.000000 0.000004 0.000000
vn -1.000000 0.000000 0.000000
vn -1.000000 0.000000 0.000000
vn -1.000000 0.000000 0.000000
vn -1.000000 0.000000 0.000000
vn 0.000000 1.000000 0.000000
vn 0.000000 1.000000 0.000000
vn 0.000000 1.000000 0.000000
vn 0.000000 1.000000 0.000000
vn 0.000000 1.000000 0.000000
vn 0.000000 1.000000 0.000000
vn 0.000000 1.000000 0.000000
vn 0.000000 1.000000 0.000000
vn 0.000000 -1.000000 0.000000
vn 0.000000 -1.000000 0.000000
vn 0.000000 -1.000000 0.000000
vn 0.000000 -1.000000 0.000000
vn 0.000000 -1.000000 0.000000
vn 0.000000 -1.000000 0.000000
vn 0.000000 -1.000000 0.000000
vn 0.000000 -1.000000 0.000000
vn 0.000000 1.000000 0.000000
vn 0.000000 1.000000 0.000000
vn 0.000000 1.000000 0.000000
vn 0.000000 1.000000 0.000000
vn 0.000000 -1.000000 0.000000
vn 0.000000 -1.000000 0.000000
vn 0.000000 -1.000000 0.000000
vn 0.000000 -1.000000 0.000000
vn 1.000000 0.000000 0.000000
vn 1.000000 0.000000 0.000000
vn 1.000000 0.000000 0.000000
vn 1.000000 0.000000 0.000000
vn -1.000000 -0.000001 0.000000
vn -1.000000 -0.000001 0.000000
vn -1.000000 0.000000 0.000000
vn -1.000000 0.000000 0.000000
vn 1.000000 0.000000 0.000000
vn 1.000000 0.000000 0.000000
vn 1.000000 0.000000 0.000000
vn 1.000000 0.000000 0.000000
vn 1.000000 -0.000000 0.000000
vn 1.000000 -0.000000 0.000000
vn 1.000000 -0.000000 0.000000
vn 1.000000 -0.000000 0.000000
vn 1.000000 0.000000 0.000000
vn 1.000000 0.000000 0.000000
vn 1.000000 0.000000 0.000000
vn 1.000000 0.000000 0.000000
vn 1.000000 0.000000 0.000000
vn 1.000000 0.000000 0.000000
vn 1.000000 0.000000 0.000000
vn 1.000000 0.000000 0.000000
vn 1.000000 0.000000 0.000000
vn 1.000000 0.000000 0.000000
vn 1.000000 0.000000 0.000000
vn 1.000000 0.000000 0.000000
vn 1.000000 0.000000 0.000000
vn 1.000000 0.000000 0.000000
vn 1.000000 0.000000 0.000000
vn 1.000000 0.000000 0.000000
vn -1.000000 0.000003 0.000000
vn -1.000000 0.000003 0.000000
vn -1.000000 0.000004 0.000000
vn -1.000000 0.000004 0.000000
vn -1.000000 0.000004 0.000000
vn -1.000000 0.000004 0.000000
vn -1.000000 0.000004 -0.000000
vn -1.000000 0.000004 -0.000000
vn -1.000000 0.000000 0.000000
vn -1.000000 0.000000 0.000000
vn -1.000000 0.000000 0.000000
vn -1.000000 0.000000 0.000000
vn 0.000000 0.000000 1.000000
vn 0.000000 0.000000 1.000000
vn 0.000000 0.000000 1.000000
vn 0.000000 0.000000 1.000000
vn 0.000000 0.000000 -1.000000
vn 0.000000 0.000000 -1.000000
vn 0.000000 0.000000 -1.000000
vn 0.000000 0.000000 -1.000000
vn 0.000000 0.000000 1.000000
vn 0.000000 0.000000 1.000000
vn 0.000000 0.000000 1.000000
vn 0.000000 0.000000 1.000000
vn 0.000000 -1.000000 0.000000
vn 0.000000 -1.000000 0.000000
vn 0.000000 -1.000000 0.000000
vn 0.000000 -1.000000 0.000000
vn 0.000000 -1.000000 0.000000
vn 0.000000 -1.000000 0.000000
vn 0.000000 -1.000000 0.000000
vn 0.000000 -1.000000 0.000000
vn 0.000000 -1.000000 0.000000
vn 0.000000 -1.000000 0.000000
vn 0.000000 -1.000000 0.000000
vn 0.000000 -1.000000 0.000000
vn 0.000000 -1.000000 0.000000
vn 0.000000 -1.000000 0.000000
vn 0.000000 -1.000000 0.000000
vn 0.000000 -1.000000 0.000000
vn 0.000000 -1.000000 0.000000
vn 0.000000 -1.000000 0.000000
vn 0.000000 -1.000000 0.000000
vn 0.000000 -1.000000 0.000000
vn 0.000000 0.000000 -1.000000
vn 0.000000 0.000000 -1.000000
vn 0.000000 0.000000 -1.000000
vn 0.000000 0.000000 -1.000000
vn 0.000000 0.000000 -1.000000
vn 0.000000 0.000000 -1.000000
vn 0.000000 0.000000 -1.000000
vn 0.000000 0.000000 -1.000000
vn -1.000000 0.000000 0.000005
vn -1.000000 0.000000 0.000005
vn -1.000000 0.000000 0.000005
vn -1.000000 0.000000 0.000005
vn -1.000000 -0.000000 -0.000000
vn -1.000000 -0.000000 -0.000000
vn -1.000000 -0.000000 -0.000000
vn -1.000000 -0.000000 -0.000000
vn 0.000000 -0.000001 1.000000
vn 0.000000 -0.000001 1.000000
vn 0.000000 -0.000001 1.000000
vn 0.000000 -0.000001 1.000000
vn -1.000000 0.000000 0.000000
vn -1.000000 0.000000 0.000000
vn -1.000000 0.000000 0.000000
vn -1.000000 0.000000 0.000000
vn 0.000000 0.000000 1.000000
vn 0.000000 0.000000 1.000000
vn 0.000000 0.000000 1.000000
vn 0.000000 0.000000 1.000000
vn 0.000000 0.000000 -1.000000
vn 0.000000 0.000000 -1.000000
vn 0.000000 0.000000 -1.000000
vn 0.000000 0.000000 -1.000000
vn 0.000000 0.000000 -1.000000
vn 0.000000 0.000000 -1.000000
vn 0.000000 0.000000 -1.000000
vn 0.000000 0.000000 -1.000000
vn 0.000000 1.000000 0.000000
vn 0.000000 1.000000 0.000000
vn 0.000000 1.000000 0.000000
vn 0.000000 1.000000 0.000000
vn 0.000000 0.000000 1.000000
vn 0.000000 0.000000 1.000000
vn 0.000000 0.000000 1.000000
vn 0.000000 0.000000 1.000000
vn 0.000000 -1.000000 0.000000
vn 0.000000 -1.000000 0.000000
vn 0.000000 -1.000000 0.000000
vn 0.000000 -1.000000 0.000000
vn -1.000000 0.000000 0.000000
vn -1.000000 0.000000 0.000000
vn -1.000000 0.000000 0.000000
vn -1.000000 0.000000 0.000000
vn 1.000000 0.000000 0.000000
vn 1.000000 0.000000 0.000000
vn 1.000000 0.000000 0.000000
vn 1.000000 0.000000 0.000000
vn 0.000000 1.000000 0.000001
vn 0.000000 1.000000 0.000001
vn 0.000000 1.000000 0.000001
vn 0.000000 1.000000 0.000001
vn 0.000000 1.000000 0.000001
vn 0.000000 1.000000 0.000001
vn 0.000000 1.000000 0.000001
vn 0.000000 1.000000 0.000001
vn 0.000000 1.000000 0.000001
vn 0.000000 1.000000 0.000001
vn 0.000000 1.000000 0.000001
vn 0.000000 1.000000 0.000001
vn 0.000000 1.000000 0.000001
vn 0.000000 1.000000 0.000001
vn 0.000000 1.000000 0.000001
vn 0.000000 1.000000 0.000001
vn 0.000000 0.000000 1.000000
vn 0.000000 0.000000 1.000000
vn 0.000000 0.000000 1.000000
vn 0.000000 0.000000 1.000000
vn 1.000000 0.000000 0.000000
vn 1.000000 0.000000 0.000000
vn 1.000000 0.000000 0.000000
vn 1.000000 0.000000 0.000000
vn 0.000000 0.000000 -1.000000
vn 0.000000 0.000000 -1.000000
vn 0.000000 0.000000 -1.000000
vn 0.000000 0.000000 -1.000000
vn -1.000000 0.000000 0.000000
vn -1.000000 0.000000 0.000000
vn -1.000000 0.000000 0.000000
vn -1.000000 0.000000 0.000000
vn -0.000001 0.000000 1.000000
vn 0.000001 0.000000 1.000000
vn 0.000000 0.000000 1.000000
vn -0.000000 0.000000 1.000000
vn 0.000001 0.000000 1.000000
vn 0.000001 0.000000 1.000000
vn 0.000000 0.000000 1.000000
vn 0.000000 0.000000 1.000000
vn 0.000001 0.000000 1.000000
vn -0.000001 0.000000 1.000000
vn -0.000000 0.000000 1.000000
vn 0.000000 0.000000 1.000000
vn -0.000001 0.000000 1.000000
vn -0.000001 0.000000 1.000000
vn -0.000000 0.000000 1.000000
vn -0.000000 0.000000 1.000000
vn -1.000000 0.000000 0.000000
vn -1.000000 0.000000 0.000000
vn -1.000000 0.000000 0.000000
vn -1.000000 0.000000 0.000000
vn 1.000000 0.000000 0.000000
vn 1.000000 0.000000 0.000000
vn 1.000000 0.000000 0.000000
vn 1.000000 0.000000 0.000000
vn 0.000000 1.000000 -0.000001
vn 0.000000 1.000000 -0.000001
vn 0.000000 1.000000 -0.000001
vn 0.000000 1.000000 -0.000001
vn 0.000000 1.000000 -0.000001
vn 0.000000 1.000000 -0.000001
vn 0.000000 1.000000 -0.000001
vn 0.000000 1.000000 -0.000001
vn 0.000000 1.000000 -0.000001
vn 0.000000 1.000000 -0.000001
vn 0.000000 1.000000 -0.000001
vn 0.000000 1.000000 -0.000001
vn 0.000000 1.000000 -0.000001
vn 0.000000 1.000000 -0.000001
vn 0.000000 1.000000 -0.000001
vn 0.000000 1.000000 -0.000001
vn 0.000000 -1.000000 -0.000002
vn 0.000000 -1.000000 -0.000002
vn 0.000000 -1.000000 -0.000003
vn 0.000000 -1.000000 -0.000003
vn 0.000000 -1.000000 -0.000002
vn 0.000000 -1.000000 0.000001
vn 0.000000 -1.000000 0.000001
vn 0.000000 -1.000000 -0.000003
vn 0.000000 -1.000000 0.000001
vn 0.000000 -1.000000 0.000001
vn 0.000000 -1.000000 0.000001
vn 0.000000 -1.000000 0.000001
vn 0.000000 -1.000000 0.000001
vn 0.000000 -1.000000 -0.000002
vn 0.000000 -1.000000 -0.000003
vn 0.000000 -1.000000 0.000001
vn 1.000000 0.000000 0.000000
vn 1.000000 0.000000 0.000000
vn 1.000000 0.000000 0.000000
vn 1.000000 0.000000 0.000000
vn 0.000000 0.000000 -1.000000
vn 0.000000 0.000000 -1.000000
vn 0.000000 0.000000 -1.000000
vn 0.000000 0.000000 -1.000000
vn -1.000000 0.000000 0.000000
vn -1.000000 0.000000 0.000000
vn -1.000000 0.000000 0.000000
vn -1.000000 0.000000 0.000000
vn 0.000000 0.000000 1.000000
vn 0.000000 0.000000 1.000000
vn 0.000000 0.000000 1.000000
vn 0.000000 0.000000 1.000000
s off
g pCube37
usemtl pCube35SG
f 11/104/1 1/111/2 18/3/3 23/117/4
f 12/96/5 49/106/6 58/7/7 24/8/8
f 2/88/9 12/5/10 24/94/11 13/10/12
f 19/11/13 16/12/14 8/112/15 3/110/16
f 21/124/17 14/125/18 4/126/19 7/87/20
f 15/113/21 17/20/22 10/21/23 6/107/24
f 22/23/25 20/90/26 5/95/27 9/84/28
f 23/117/29 18/3/30 37/27/31 42/116/32
f 24/8/33 58/7/34 67/29/35 43/30/36
f 13/10/37 24/94/38 43/92/39 44/31/40
f 31/32/41 28/33/42 47/34/43 38/35/44
f 33/120/45 26/82/46 45/122/47 40/119/48
f 27/103/49 29/41/50 48/42/51 46/114/52
f 34/44/53 32/93/54 39/89/55 41/47/56
f 42/116/57 37/27/58 30/48/59 35/49/60
f 42/28/61 35/115/62 64/101/63 67/29/64
f 44/31/65 43/92/66 36/91/67 25/85/68
f 38/35/69 47/34/70 16/12/71 19/11/72
f 40/78/73 45/73/74 14/76/75 21/80/76
f 46/114/77 48/42/78 17/20/79 15/113/80
f 41/47/81 39/89/82 20/90/83 22/23/84
f 40/78/85 21/80/86 55/79/87 69/77/88
f 22/23/89 56/55/90 70/56/91 41/47/92
f 18/3/93 1/111/94 8/112/95 16/12/96
f 1/2/97 52/57/98 50/58/99 8/13/100
f 2/88/101 13/10/102 21/15/103 7/123/104
f 13/10/105 59/59/106 55/53/107 21/15/108
f 3/14/109 53/60/110 51/61/111 10/109/112
f 44/31/113 25/85/114 33/86/115 40/39/116
f 25/52/117 66/62/118 61/63/119 33/36/120
f 30/48/121 37/27/122 47/34/123 28/33/124
f 6/22/125 10/109/126 51/61/127 54/100/128
f 3/14/129 8/13/130 50/58/131 53/60/132
f 1/2/133 11/105/134 49/6/135 52/57/136
f 35/49/137 30/48/138 66/62/139 64/50/140
f 28/33/141 31/32/142 63/65/143 61/63/144
f 29/41/145 27/103/146 65/97/147 62/67/148
f 58/7/149 49/106/150 11/1/151 23/4/152
f 67/29/153 58/7/154 23/4/155 42/28/156
f 71/68/157 59/59/158 13/10/159 44/31/160
f 68/69/161 60/70/162 20/24/163 39/46/164
f 67/29/165 64/101/166 36/51/167 43/30/168
f 72/74/169 57/75/170 14/76/171 45/73/172
f 50/58/173 52/57/174 2/9/175 7/18/176
f 61/63/177 66/62/178 30/48/179 28/33/180
f 69/54/181 71/68/182 44/31/183 40/39/184
f 41/47/185 70/56/186 72/71/187 45/38/188
f 9/26/189 51/61/190 53/60/191 4/83/192
f 54/100/193 51/61/194 9/26/195 5/99/196
f 53/60/197 50/58/198 7/18/199 4/83/200
f 52/57/201 49/6/202 12/118/203 2/9/204
f 64/50/205 66/62/206 25/52/207 36/102/208
f 61/63/209 63/65/210 26/37/211 33/36/212
f 62/67/213 65/97/214 32/45/215 34/81/216
f 55/53/217 59/59/218 71/68/219 69/54/220
f 18/3/221 16/12/222 47/34/223 37/27/224
f 70/56/225 56/55/226 57/72/227 72/71/228
f 46/43/229 15/19/230 60/70/231 68/69/232
f 54/64/233 5/25/234 20/24/235 60/70/236
f 32/98/237 65/66/238 68/69/239 39/46/240
f 27/40/241 46/43/242 68/69/243 65/66/244
f 15/19/245 6/108/246 54/64/247 60/70/248
f 19/11/249 17/20/250 48/42/251 38/35/252
f 29/41/253 31/32/254 38/35/255 48/42/256
f 31/32/257 29/41/258 62/67/259 63/65/260
f 34/81/261 26/37/262 63/65/263 62/67/264
f 26/121/265 34/44/266 41/47/267 45/38/268
f 22/23/269 14/16/270 57/72/271 56/55/272
f 9/84/273 4/17/274 14/16/275 22/23/276
f 3/110/277 10/21/278 17/20/279 19/11/280
f 73/127/281 74/128/282 76/129/283 75/130/284
f 85/131/285 86/132/286 87/133/287 88/134/288
f 93/135/289 94/136/290 95/137/291 96/138/292
f 79/139/293 80/140/294 74/141/295 73/142/296
f 74/143/297 80/144/298 78/145/299 76/146/300
f 79/147/301 73/148/302 75/149/303 77/150/304
f 75/130/305 76/129/306 82/151/307 81/152/308
f 76/146/309 78/145/310 83/153/311 82/154/312
f 78/155/313 77/156/314 84/157/315 83/158/316
f 77/150/317 75/149/318 81/159/319 84/160/320
f 81/161/321 82/162/322 86/163/323 85/164/324
f 82/165/325 83/166/326 87/167/327 86/168/328
f 83/169/329 84/170/330 88/171/331 87/172/332
f 84/173/333 81/174/334 85/175/335 88/176/336
f 77/156/337 78/155/338 90/177/339 89/178/340
f 78/155/341 80/179/342 91/180/343 90/177/344
f 80/179/345 79/181/346 92/182/347 91/180/348
f 79/181/349 77/156/350 89/178/351 92/182/352
f 90/183/353 91/184/354 95/137/355 94/136/356
f 92/185/357 89/186/358 93/135/359 96/138/360
f 89/187/361 90/188/362 98/189/363 97/190/364
f 90/191/365 94/192/366 99/193/367 98/194/368
f 94/195/369 93/196/370 100/197/371 99/198/372
f 93/199/373 89/200/374 97/201/375 100/202/376
f 91/203/377 92/204/378 101/205/379 102/206/380
f 92/207/381 96/208/382 103/209/383 101/210/384
f 96/211/385 95/212/386 104/213/387 103/214/388
f 95/215/389 91/216/390 102/217/391 104/218/392
f 98/219/393 99/198/394 104/220/395 102/221/396
f 99/198/397 100/197/398 103/222/399 104/220/400
f 100/197/401 97/223/402 101/224/403 103/222/404
f 97/190/405 98/189/406 102/206/407 101/205/408
